<svg xmlns="http://www.w3.org/2000/svg" width="589" height="589" viewBox="0 0 589 589">
  <path id="discord-svg" d="M294.5,589a296.675,296.675,0,0,1-59.352-5.983A292.884,292.884,0,0,1,129.842,538.7a295.359,295.359,0,0,1-106.7-129.571,293.017,293.017,0,0,1-17.16-55.281,297.374,297.374,0,0,1,0-118.7A292.888,292.888,0,0,1,50.3,129.842a295.358,295.358,0,0,1,129.571-106.7,293.02,293.02,0,0,1,55.281-17.16,297.374,297.374,0,0,1,118.7,0A292.888,292.888,0,0,1,459.158,50.3a295.359,295.359,0,0,1,106.7,129.571,293.025,293.025,0,0,1,17.16,55.281,297.374,297.374,0,0,1,0,118.7A292.884,292.884,0,0,1,538.7,459.158a295.36,295.36,0,0,1-129.571,106.7,293.022,293.022,0,0,1-55.281,17.16A296.675,296.675,0,0,1,294.5,589ZM242.9,156.6a1.2,1.2,0,0,0-.18.014,297.347,297.347,0,0,0-73.574,22.819,1.049,1.049,0,0,0-.484.416c-42.878,64.059-60.345,131.356-53.4,205.737a1.232,1.232,0,0,0,.47.846,301.1,301.1,0,0,0,90.258,45.625,1.142,1.142,0,0,0,.336.05,1.174,1.174,0,0,0,.932-.466,215.041,215.041,0,0,0,18.464-30.034,1.122,1.122,0,0,0,.05-.924,1.169,1.169,0,0,0-.676-.668,196.033,196.033,0,0,1-28.2-13.439,1.157,1.157,0,0,1-.57-.939,1.142,1.142,0,0,1,.456-.983c2.006-1.5,3.89-2.98,5.6-4.389a1.116,1.116,0,0,1,1.168-.158c29.439,13.441,60.086,20.256,91.089,20.256a214.645,214.645,0,0,0,90.566-20.256,1.078,1.078,0,0,1,.474-.109,1.144,1.144,0,0,1,.709.252c1.875,1.546,3.764,3.028,5.613,4.4a1.156,1.156,0,0,1,.463,1,1.142,1.142,0,0,1-.562.927A184.052,184.052,0,0,1,363.7,400a1.149,1.149,0,0,0-.663.659,1.167,1.167,0,0,0,.05.948,241.516,241.516,0,0,0,18.45,30.019,1.146,1.146,0,0,0,1.269.43,300.23,300.23,0,0,0,90.4-45.625,1.165,1.165,0,0,0,.471-.832c3.666-37.927.777-74.8-8.588-109.592-8.919-33.137-24.01-65.485-44.855-96.145a.918.918,0,0,0-.47-.43,298.188,298.188,0,0,0-73.574-22.819,1.144,1.144,0,0,0-.206-.019,1.111,1.111,0,0,0-.977.578,206.342,206.342,0,0,0-9.161,18.818,281.49,281.49,0,0,0-41.532-3.119,272.949,272.949,0,0,0-41.1,3.119,190.521,190.521,0,0,0-9.3-18.818A1.162,1.162,0,0,0,242.9,156.6ZM354.665,344.521a29.087,29.087,0,0,1-12.589-2.869,32.659,32.659,0,0,1-10.331-7.817,37,37,0,0,1-6.992-11.582,39.753,39.753,0,0,1-2.571-14.164,40.235,40.235,0,0,1,2.531-14.164,36.765,36.765,0,0,1,6.925-11.582,32.275,32.275,0,0,1,10.318-7.817,29.439,29.439,0,0,1,12.709-2.869,30.758,30.758,0,0,1,21.967,9.435,35.9,35.9,0,0,1,7.791,12.019,38.8,38.8,0,0,1,2.727,14.979,40.476,40.476,0,0,1-2.511,14.164,36.648,36.648,0,0,1-6.892,11.582A30.6,30.6,0,0,1,354.665,344.521Zm-120.106,0a29.09,29.09,0,0,1-12.589-2.869,32.66,32.66,0,0,1-10.332-7.817,37,37,0,0,1-6.993-11.582,39.749,39.749,0,0,1-2.571-14.164,40.231,40.231,0,0,1,2.531-14.164,36.766,36.766,0,0,1,6.926-11.582,32.278,32.278,0,0,1,10.319-7.817,29.441,29.441,0,0,1,12.709-2.869,30.757,30.757,0,0,1,21.967,9.435,35.9,35.9,0,0,1,7.791,12.019,38.8,38.8,0,0,1,2.726,14.978,40.233,40.233,0,0,1-2.531,14.164,36.765,36.765,0,0,1-6.926,11.582,32.276,32.276,0,0,1-10.318,7.817A29.438,29.438,0,0,1,234.559,344.521Z" fill="#fff"/>
</svg>
