<svg xmlns="http://www.w3.org/2000/svg" width="455.524" height="59.403" viewBox="0 0 455.524 59.403">
  <g id="Group_112" data-name="Group 112" transform="translate(-69.876 -312.011)">
    <path id="Path_142" data-name="Path 142" d="M131.053,335.163c-.1-.005-.2-.015-.3-.015H120.415a10.666,10.666,0,0,1-10.666-10.666h35.487a10.869,10.869,0,0,1,5.872,1.635,8.36,8.36,0,0,1,1.823,1.544.741.741,0,0,0,1.286-.507V318.9a6.892,6.892,0,0,0-6.892-6.892H97.114v12.635a23.929,23.929,0,0,0,.211,3.118H69.876V340.4A23.628,23.628,0,0,0,93.5,364.027h16.737v-6.4a6.727,6.727,0,0,0-6.727-6.728H93.176A10.666,10.666,0,0,1,82.51,340.234h18.75a11.964,11.964,0,0,1,1.864.151,23.564,23.564,0,0,0,17.152,7.878c.1,0,.2.015.3.015h10.337a10.666,10.666,0,0,1,10.666,10.666h-18.75a10.863,10.863,0,0,1-5.872-1.636,8.357,8.357,0,0,1-1.823-1.543.741.741,0,0,0-1.286.506v8.252a6.892,6.892,0,0,0,6.892,6.891h33.474V358.78A23.623,23.623,0,0,0,131.053,335.163Z" fill="#fff"/>
    <g id="Group_112-2" data-name="Group 112">
      <path id="Path_143" data-name="Path 143" d="M164.1,341.524a12.293,12.293,0,0,1,12.288-12.288,12.161,12.161,0,0,1,8.885,3.828l-3.923,3.923a6.817,6.817,0,0,0-4.962-2.174,6.711,6.711,0,1,0,4.962,11.2l3.923,3.97a12.162,12.162,0,0,1-8.885,3.829A12.325,12.325,0,0,1,164.1,341.524Z" fill="#fff"/>
      <path id="Path_144" data-name="Path 144" d="M189.051,353.34V329.709h5.577V332.4a9.134,9.134,0,0,1,7.089-3.166v5.294a2.651,2.651,0,0,0-.614-.048,6.172,6.172,0,0,0-6.475,6.1V353.34Z" fill="#fff"/>
      <path id="Path_145" data-name="Path 145" d="M202.945,329.709h6.05l6.806,16.636,6.475-16.636h6.049l-11.106,27.885c-1.8,4.489-5.01,6.615-9.406,6.615-.709,0-1.465,0-2.173-.047v-5.387c.425,0,.85.047,1.323.047,2.221,0,3.733-.85,4.82-3.309l.945-2.173Z" fill="#fff"/>
      <path id="Path_146" data-name="Path 146" d="M231.443,329.709h5.577v3.024a9.637,9.637,0,0,1,7.278-3.5c6.8,0,11.721,5.482,11.721,12.288,0,6.758-4.916,12.289-11.721,12.289a9.758,9.758,0,0,1-7.278-3.451v14.226h-5.577Zm5.577,11.815a6.711,6.711,0,1,0,6.711-6.711A6.737,6.737,0,0,0,237.02,341.524Z" fill="#fff"/>
      <path id="Path_147" data-name="Path 147" d="M260.178,329.709a1.947,1.947,0,0,0,2.078-2.033v-4.3h5.578v6.334h6v5.577h-6v8.459c0,3.734.567,4.679,2.835,4.679a15.6,15.6,0,0,0,3.167-.378v5.294a17.18,17.18,0,0,1-3.923.473c-5.388,0-7.657-2.459-7.657-8.413V335.286h-4.347v-5.577Z" fill="#fff"/>
      <path id="Path_148" data-name="Path 148" d="M301.2,341.524a12.288,12.288,0,1,1-12.288-12.288A12.295,12.295,0,0,1,301.2,341.524Zm-12.288,6.711a6.711,6.711,0,1,0-6.711-6.711A6.737,6.737,0,0,0,288.912,348.235Z" fill="#fff"/>
      <path id="Path_149" data-name="Path 149" d="M304.223,341.524a12.293,12.293,0,0,1,12.288-12.288,12.159,12.159,0,0,1,8.885,3.828l-3.923,3.923a6.817,6.817,0,0,0-4.962-2.174,6.711,6.711,0,1,0,4.962,11.2l3.923,3.97a12.16,12.16,0,0,1-8.885,3.829A12.325,12.325,0,0,1,304.223,341.524Z" fill="#fff"/>
      <path id="Path_150" data-name="Path 150" d="M339.008,329.236a9.882,9.882,0,0,1,7.277,3.4v-2.93h5.578V353.34h-5.578v-3.025a9.636,9.636,0,0,1-7.277,3.5c-6.759,0-11.721-5.531-11.721-12.289S332.249,329.236,339.008,329.236Zm-6.144,12.288a6.71,6.71,0,1,0,6.711-6.711A6.737,6.737,0,0,0,332.864,341.524Z" fill="#fff"/>
      <path id="Path_151" data-name="Path 151" d="M357.343,353.34V329.709h5.577V332.4a9.133,9.133,0,0,1,7.09-3.166v5.294a2.664,2.664,0,0,0-.615-.048,6.172,6.172,0,0,0-6.475,6.1V353.34Z" fill="#fff"/>
    </g>
    <path id="Path_152" data-name="Path 152" d="M375.207,345.967a11.277,11.277,0,0,0,7.137,2.788c2.363,0,4.206-.992,4.206-2.268,0-1.986-2.978-2.6-4.726-3.073-3.876-1.086-9.121-2.22-9.121-7.278,0-4.017,3.922-6.9,9.263-6.9a14.233,14.233,0,0,1,9.4,3.45l-3.072,3.781a9.816,9.816,0,0,0-6.333-2.174c-2.458,0-3.64.851-3.64,1.89,0,1.277,2.364,1.8,4.915,2.411,4.679,1.087,8.886,2.742,8.886,7.845,0,4.254-4.207,7.374-9.925,7.374a15.007,15.007,0,0,1-10.3-4.018Z" fill="#fff"/>
    <path id="Path_153" data-name="Path 153" d="M419.254,341.524a12.288,12.288,0,1,1-12.289-12.288A12.3,12.3,0,0,1,419.254,341.524Zm-12.289,6.711a6.711,6.711,0,1,0-6.711-6.711A6.737,6.737,0,0,0,406.965,348.235Z" fill="#fff"/>
    <path id="Path_154" data-name="Path 154" d="M422.277,341.524a12.294,12.294,0,0,1,12.289-12.288,12.163,12.163,0,0,1,8.885,3.828l-3.923,3.923a6.818,6.818,0,0,0-4.962-2.174,6.711,6.711,0,1,0,4.962,11.2l3.923,3.97a12.164,12.164,0,0,1-8.885,3.829A12.326,12.326,0,0,1,422.277,341.524Z" fill="#fff"/>
    <path id="Path_155" data-name="Path 155" d="M449.925,318.838a3.333,3.333,0,1,1-3.308,3.309A3.318,3.318,0,0,1,449.925,318.838Zm-2.789,34.5V329.709h5.577V353.34Z" fill="#fff"/>
    <path id="Path_156" data-name="Path 156" d="M468.829,329.236c6.711,0,11.295,4.916,11.295,11.958,0,.9-.141,1.89-.236,2.835H462.307c.945,2.93,3.592,4.726,7.09,4.726a7.872,7.872,0,0,0,5.86-2.363l3.545,3.545a12.421,12.421,0,0,1-9.453,3.876,12.214,12.214,0,0,1-12.572-12.289A11.95,11.95,0,0,1,468.829,329.236Zm-6.616,10.445h12.666a6.023,6.023,0,0,0-6.145-5.435A6.4,6.4,0,0,0,462.213,339.681Z" fill="#fff"/>
    <path id="Path_157" data-name="Path 157" d="M484.283,329.709a1.948,1.948,0,0,0,2.079-2.033v-4.3h5.577v6.334h6v5.577h-6v8.459c0,3.734.568,4.679,2.836,4.679a15.6,15.6,0,0,0,3.167-.378v5.294a17.186,17.186,0,0,1-3.923.473c-5.388,0-7.657-2.459-7.657-8.413V335.286h-4.347v-5.577Z" fill="#fff"/>
    <path id="Path_158" data-name="Path 158" d="M500.021,329.709h6.049l6.806,16.636,6.474-16.636h6.05l-11.107,27.885c-1.8,4.489-5.009,6.615-9.4,6.615-.709,0-1.466,0-2.175-.047v-5.387c.426,0,.851.047,1.324.047,2.221,0,3.733-.85,4.821-3.309l.945-2.173Z" fill="#fff"/>
  </g>
</svg>
