<svg xmlns="http://www.w3.org/2000/svg" width="16.377" height="11.389" viewBox="0 0 16.377 11.389">
  <path id="Icon_simple-discord" data-name="Icon simple-discord" d="M17.685,8.523h-.034l-.228.226a9.086,9.086,0,0,1,3.469,1.734A12.269,12.269,0,0,0,16.67,9.2a11.6,11.6,0,0,0-2.792,0h-.226a10.056,10.056,0,0,0-3.169.829c-.527.229-.829.379-.829.379a8.047,8.047,0,0,1,3.621-1.734l-.152-.152A6.777,6.777,0,0,0,9.2,9.955a17.653,17.653,0,0,0-2.036,7.918,4.922,4.922,0,0,0,4.222,2.037s.451-.6.908-1.13A4.463,4.463,0,0,1,9.881,17.2a3.741,3.741,0,0,1,.378.226h.068a.09.09,0,0,1,.068.034v.007a.086.086,0,0,0,.068.034c.372.153.744.3,1.049.451a9.227,9.227,0,0,0,2.03.6,11.585,11.585,0,0,0,3.621,0,10.424,10.424,0,0,0,2.03-.6,16.271,16.271,0,0,0,1.576-.831A4.482,4.482,0,0,1,18.281,18.7c.372.526.9,1.128.9,1.128a5.887,5.887,0,0,0,4.365-1.947A17.616,17.616,0,0,0,21.5,9.964a6.783,6.783,0,0,0-3.874-1.421l.063-.023Zm.189,4.977a1.511,1.511,0,1,1-1.432,1.513A1.471,1.471,0,0,1,17.875,13.5Zm-5.124,0a1.51,1.51,0,1,1-1.437,1.513A1.469,1.469,0,0,1,12.751,13.5Z" transform="translate(-7.166 -8.52)" fill="#fff"/>
</svg>
