<svg xmlns="http://www.w3.org/2000/svg" width="84.341" height="59.403" viewBox="0 0 84.341 59.403">
  <path id="logo-icon" d="M131.053,335.163c-.1-.005-.2-.015-.3-.015H120.415a10.666,10.666,0,0,1-10.666-10.666h35.487a10.869,10.869,0,0,1,5.872,1.635,8.36,8.36,0,0,1,1.823,1.544.741.741,0,0,0,1.286-.507V318.9a6.892,6.892,0,0,0-6.892-6.892H97.114v12.635a23.929,23.929,0,0,0,.211,3.118H69.876V340.4A23.628,23.628,0,0,0,93.5,364.027h16.737v-6.4a6.727,6.727,0,0,0-6.727-6.728H93.176A10.666,10.666,0,0,1,82.51,340.234h18.75a11.964,11.964,0,0,1,1.864.151,23.564,23.564,0,0,0,17.152,7.878c.1,0,.2.015.3.015h10.337a10.666,10.666,0,0,1,10.666,10.666h-18.75a10.863,10.863,0,0,1-5.872-1.636,8.357,8.357,0,0,1-1.823-1.543.741.741,0,0,0-1.286.506v8.252a6.892,6.892,0,0,0,6.892,6.891h33.474V358.78A23.623,23.623,0,0,0,131.053,335.163Z" transform="translate(-69.876 -312.011)" fill="#fff"/>
</svg>
