<svg xmlns="http://www.w3.org/2000/svg" width="186.111" height="131.081" viewBox="0 0 186.111 131.081">
  <path id="Path_159" data-name="Path 159" d="M448.907,162.875c-.222-.01-.44-.034-.664-.034H425.432A23.535,23.535,0,0,1,401.9,139.306H480.2a23.966,23.966,0,0,1,12.956,3.609,18.374,18.374,0,0,1,4.024,3.406,1.635,1.635,0,0,0,2.838-1.118V127a15.206,15.206,0,0,0-15.207-15.207h-110.8v27.88a52.548,52.548,0,0,0,.466,6.879H313.91v27.881a52.14,52.14,0,0,0,52.14,52.14h36.932V212.446A14.845,14.845,0,0,0,388.137,197.6H365.326a23.535,23.535,0,0,1-23.535-23.535h41.374a26.408,26.408,0,0,1,4.112.332,51.994,51.994,0,0,0,37.848,17.384c.223.01.443.033.669.033h22.811a23.536,23.536,0,0,1,23.535,23.536H430.766a23.981,23.981,0,0,1-12.957-3.609,18.423,18.423,0,0,1-4.023-3.406,1.634,1.634,0,0,0-2.838,1.118v18.207a15.208,15.208,0,0,0,15.208,15.208h73.865v-27.88A52.13,52.13,0,0,0,448.907,162.875Z" transform="translate(-313.91 -111.788)" fill="#fff"/>
</svg>
