<svg xmlns="http://www.w3.org/2000/svg" width="589" height="589" viewBox="0 0 589 589">
  <g id="twitter-svg" transform="translate(-126.444 -2.281)">
    <path id="Subtraction_1" data-name="Subtraction 1" d="M4006.944,2991.281a296.665,296.665,0,0,1-59.352-5.983,292.889,292.889,0,0,1-105.305-44.313,295.36,295.36,0,0,1-106.7-129.571,293.027,293.027,0,0,1-17.16-55.28,297.374,297.374,0,0,1,0-118.7,292.883,292.883,0,0,1,44.313-105.306,295.355,295.355,0,0,1,129.572-106.7,293.023,293.023,0,0,1,55.28-17.16,297.372,297.372,0,0,1,118.7,0,292.887,292.887,0,0,1,105.306,44.313,295.364,295.364,0,0,1,106.7,129.572,293.051,293.051,0,0,1,17.16,55.281,297.362,297.362,0,0,1,0,118.7,292.877,292.877,0,0,1-44.312,105.305,295.368,295.368,0,0,1-129.572,106.7,293,293,0,0,1-55.281,17.16A296.666,296.666,0,0,1,4006.944,2991.281Zm-188.828-175.864h0a219.619,219.619,0,0,0,118.759,34.822c137.977,0,220.427-112.075,220.427-220.427,0-3.449-.079-6.821-.235-10.021a157.391,157.391,0,0,0,38.708-40.158,154.851,154.851,0,0,1-44.5,12.2,77.534,77.534,0,0,0,34.066-42.86,154.368,154.368,0,0,1-49.209,18.8,77.563,77.563,0,0,0-132.017,70.677,220.39,220.39,0,0,1-159.684-80.945,77.549,77.549,0,0,0,23.973,103.43,77.137,77.137,0,0,1-35.1-9.687v.979a77.661,77.661,0,0,0,62.145,75.962,77.27,77.27,0,0,1-20.413,2.715,79.139,79.139,0,0,1-14.584-1.363,77.474,77.474,0,0,0,72.364,53.8,156.013,156.013,0,0,1-114.7,32.072Z" transform="translate(-3586 -2400)" fill="#fff"/>
  </g>
</svg>
